<?xml version="1.0" encoding="UTF-8"?>
<svg version="1.1" xmlns="http://www.w3.org/2000/svg" width="112" height="119">
<path d="M0 0 C36.96 0 73.92 0 112 0 C112 39.27 112 78.54 112 119 C75.04 119 38.08 119 0 119 C0 79.73 0 40.46 0 0 Z " fill="#FDFCFD" transform="translate(0,0)"/>
<path d="M0 0 C8.48303039 0.49995046 13.09389254 3.05729052 19.19921875 8.90625 C21 11 21 11 21 13 C21.66 13 22.32 13 23 13 C23.81837442 14.41328129 24.62946219 15.83078346 25.4375 17.25 C26.11619141 18.43335938 26.11619141 18.43335938 26.80859375 19.640625 C30.79053669 27.52617757 29.46667653 36.829134 27 45 C26.34 45 25.68 45 25 45 C24.88914063 45.57878906 24.77828125 46.15757813 24.6640625 46.75390625 C22.68961972 53.43216861 16.95273003 58.71068385 11 62 C7.5625 63.3125 7.5625 63.3125 5 64 C5 64.99 5 65.98 5 67 C3.39536551 66.68991116 1.79130769 66.37683713 0.1875 66.0625 C-0.70582031 65.88847656 -1.59914062 65.71445313 -2.51953125 65.53515625 C-5 65 -5 65 -8 64 C-8 61 -8 61 -5.75 58.5 C-3.56458892 56.51326265 -1.41145588 54.69695043 1 53 C1.99 53.66 2.98 54.32 4 55 C4.99 53.02 5.98 51.04 7 49 C3.37 48.67 -0.26 48.34 -4 48 C-4 50.64 -4 53.28 -4 56 C-4.99 56.495 -4.99 56.495 -6 57 C-6 54.03 -6 51.06 -6 48 C-11.445 48.495 -11.445 48.495 -17 49 C-16.38125 50.258125 -15.7625 51.51625 -15.125 52.8125 C-14.77695312 53.52019531 -14.42890625 54.22789063 -14.0703125 54.95703125 C-12.9343514 57.21246418 -12.9343514 57.21246418 -11 60 C-19.41065488 57.39670206 -24.99673729 54.35346359 -30 47 C-33.60307125 39.82555607 -35.619233 32.58587478 -33.33984375 24.72265625 C-30.56905777 17.70573071 -26.16563366 11.91132598 -19.6875 8 C-17 7 -17 7 -15 7 C-15.66 9.64 -16.32 12.28 -17 15 C-13.37 15 -9.74 15 -6 15 C-6 12.36 -6 9.72 -6 7 C-5.34 6.67 -4.68 6.34 -4 6 C-4 8.97 -4 11.94 -4 15 C-0.37 14.67 3.26 14.34 7 14 C5.12344231 8.8641579 3.67025461 6.15557744 -1 3 C-0.67 2.01 -0.34 1.02 0 0 Z " fill="#27BCE3" transform="translate(63,13)"/>
<path d="M0 0 C3.96 0 7.92 0 12 0 C12.33 0.99 12.66 1.98 13 3 C13.66 3 14.32 3 15 3 C15 2.01 15 1.02 15 0 C17.64 0 20.28 0 23 0 C23 4.29 23 8.58 23 13 C23.99 12.67 24.98 12.34 26 12 C26 11.01 26 10.02 26 9 C25.34 9 24.68 9 24 9 C23.8125 5.625 23.8125 5.625 24 2 C27.08888522 -0.05925681 27.70935927 -0.2390374 31.1875 -0.125 C33.0746875 -0.063125 33.0746875 -0.063125 35 0 C35 0.99 35 1.98 35 3 C33.35 3.33 31.7 3.66 30 4 C29.67 4.99 29.34 5.98 29 7 C29.94875 7.28875 30.8975 7.5775 31.875 7.875 C35 9 35 9 37 11 C37.375 13.4375 37.375 13.4375 37 16 C35.4375 17.8125 35.4375 17.8125 33 19 C29.4375 19.1875 29.4375 19.1875 26 19 C25.01 19 24.02 19 23 19 C15.33333333 19 7.66666667 19 0 19 C0 12.73 0 6.46 0 0 Z " fill="#CAECF7" transform="translate(15,93)"/>
<path d="M0 0 C7.70578218 0.34946858 12.52484879 1.970381 18.4375 7.125 C20 9 20 9 20 11 C20.66 11 21.32 11 22 11 C22.81837442 12.41328129 23.62946219 13.83078346 24.4375 15.25 C25.11619141 16.43335938 25.11619141 16.43335938 25.80859375 17.640625 C29.79053669 25.52617757 28.46667653 34.829134 26 43 C25.34 43 24.68 43 24 43 C23.88914063 43.57878906 23.77828125 44.15757813 23.6640625 44.75390625 C21.68961972 51.43216861 15.95273003 56.71068385 10 60 C6.5625 61.3125 6.5625 61.3125 4 62 C4 62.99 4 63.98 4 65 C2.39536551 64.68991116 0.79130769 64.37683713 -0.8125 64.0625 C-1.70582031 63.88847656 -2.59914063 63.71445313 -3.51953125 63.53515625 C-6 63 -6 63 -9 62 C-9 59 -9 59 -6.75 56.5 C-4.56458892 54.51326265 -2.41145588 52.69695043 0 51 C0.66 51.66 1.32 52.32 2 53 C7.44791165 53 11.01168617 51.33666736 15.265625 47.96484375 C18.30792538 44.51827372 19.15883942 40.43361724 20 36 C20.66 36 21.32 36 22 36 C22.00748845 22.63631931 22.00748845 22.63631931 16 11 C15.34 10.67 14.68 10.34 14 10 C14 9.34 14 8.68 14 8 C13.01 7.67 12.02 7.34 11 7 C11 6.34 11 5.68 11 5 C9.6696875 4.566875 9.6696875 4.566875 8.3125 4.125 C5.49617576 3.16851252 2.74916844 2.13201054 0 1 C0 0.67 0 0.34 0 0 Z " fill="#0979BC" transform="translate(64,15)"/>
<path d="M0 0 C2.64 0.33 5.28 0.66 8 1 C8 1.66 8 2.32 8 3 C9.32 3 10.64 3 12 3 C11.40716379 6.39192363 10.23256811 8.2107757 7.9375 10.75 C7.38964844 11.36359375 6.84179688 11.9771875 6.27734375 12.609375 C5.85582031 13.06828125 5.43429688 13.5271875 5 14 C4.67 13.34 4.34 12.68 4 12 C-1.94843723 11.25644535 -5.45580548 13.47971197 -10 17 C-14.80522248 21.80522248 -18.12838081 28.47822363 -18.5625 35.3125 C-18.14905494 43.45309063 -14.17300462 51.7861464 -8.6015625 57.671875 C-5.97427763 59.85059904 -3.20747854 60.91174835 0 62 C1.7015625 62.5878125 1.7015625 62.5878125 3.4375 63.1875 C4.283125 63.455625 5.12875 63.72375 6 64 C6 64.99 6 65.98 6 67 C-2.9814206 66.35846996 -9.2420957 63.53578881 -15.4609375 56.93359375 C-22.91505767 47.56864582 -22.89001584 36.45240966 -22 25 C-20.46594637 16.80110527 -15.51748322 11.0159062 -9 6 C-6.3634729 4.73039718 -3.79531005 3.89849252 -1 3 C-0.67 2.01 -0.34 1.02 0 0 Z " fill="#E50F11" transform="translate(48,9)"/>
<path d="M0 0 C8.09319899 -0.47607053 8.09319899 -0.47607053 11.5 1.3125 C13.89347895 5.60081644 13.83311245 10.16026094 14 15 C14.598125 14.484375 15.19625 13.96875 15.8125 13.4375 C16.534375 12.963125 17.25625 12.48875 18 12 C18.99 12.33 19.98 12.66 21 13 C21.6875 15.0625 21.6875 15.0625 22 17 C22.144375 15.865625 22.28875 14.73125 22.4375 13.5625 C23 10 23 10 24 9 C25.51928038 8.92820036 27.04167482 8.91607993 28.5625 8.9375 C29.38878906 8.94652344 30.21507813 8.95554687 31.06640625 8.96484375 C31.70449219 8.97644531 32.34257813 8.98804688 33 9 C32.60328147 14.90973805 32.0231222 20.78603216 29 26 C26.3125 28 26.3125 28 24 29 C22.31503702 28.03114628 20.64821244 27.03013277 19 26 C19 25.67 19 25.34 19 25 C15.37 24.67 11.74 24.34 8 24 C8.33 22.68 8.66 21.36 9 20 C8.34 20 7.68 20 7 20 C7.309375 19.071875 7.309375 19.071875 7.625 18.125 C7.74875 17.42375 7.8725 16.7225 8 16 C7.34 15.34 6.68 14.68 6 14 C6.375 11.875 6.375 11.875 7 10 C5.68 9.67 4.36 9.34 3 9 C3.33 10.98 3.66 12.96 4 15 C2.68 15 1.36 15 0 15 C0 10.05 0 5.1 0 0 Z " fill="#2FC0E4" transform="translate(52,36)"/>
<path d="M0 0 C8.91 0 17.82 0 27 0 C27 1.32 27 2.64 27 4 C25.35 4 23.7 4 22 4 C22 8.95 22 13.9 22 19 C20.35 19 18.7 19 17 19 C17 14.05 17 9.1 17 4 C13.04 4 9.08 4 5 4 C5 4.99 5 5.98 5 7 C6.65 7 8.3 7 10 7 C10.33 8.65 10.66 10.3 11 12 C9.02 12 7.04 12 5 12 C5 12.99 5 13.98 5 15 C6.98 15 8.96 15 11 15 C11 16.32 11 17.64 11 19 C7.37 19 3.74 19 0 19 C0 12.73 0 6.46 0 0 Z " fill="#6FD0EB" transform="translate(75,93)"/>
<path d="M0 0 C-0.33 1.32 -0.66 2.64 -1 4 C-1.99 4 -2.98 4 -4 4 C-3.34 4.33 -2.68 4.66 -2 5 C-2 6.65 -2 8.3 -2 10 C-2.66 10 -3.32 10 -4 10 C-4.33 13.63 -4.66 17.26 -5 21 C-7.97 21 -10.94 21 -14 21 C-14 21.99 -14 22.98 -14 24 C-10.7 24 -7.4 24 -4 24 C-3.34 29.28 -2.68 34.56 -2 40 C-8 41 -8 41 -9.73828125 39.8828125 C-13.97504592 33.56045779 -16.31105467 25.5554594 -15 18 C-13.01630369 11.15683463 -9.08710192 5.91168461 -4 1 C-2 0 -2 0 0 0 Z " fill="#F2F4F6" transform="translate(44,22)"/>
<path d="M0 0 C2.76223278 2.76223278 2.57856291 5.20706617 3 9 C3.639375 9.12375 4.27875 9.2475 4.9375 9.375 C5.618125 9.58125 6.29875 9.7875 7 10 C8.32229189 12.64458379 8.09677194 14.67761301 8.0625 17.625 C8.05347656 18.62789062 8.04445313 19.63078125 8.03515625 20.6640625 C8.02355469 21.43492188 8.01195313 22.20578125 8 23 C10.64 23.33 13.28 23.66 16 24 C16 25.98 16 27.96 16 30 C14.37509046 30.02698189 12.75005367 30.04638757 11.125 30.0625 C9.76761719 30.07990234 9.76761719 30.07990234 8.3828125 30.09765625 C6 30 6 30 4 29 C3.67 29.99 3.34 30.98 3 32 C2.34 32 1.68 32 1 32 C-1.10575375 26.47239641 -2.37851209 21.93002267 -2 16 C-5.3 16 -8.6 16 -12 16 C-12 15.01 -12 14.02 -12 13 C-9.03 13 -6.06 13 -3 13 C-2.67 9.37 -2.34 5.74 -2 2 C-1.34 2 -0.68 2 0 2 C0 1.34 0 0.68 0 0 Z " fill="#15B8E1" transform="translate(42,30)"/>
<path d="M0 0 C0.33 0 0.66 0 1 0 C1 4.62 1 9.24 1 14 C1.99 13.67 2.98 13.34 4 13 C4 11.35 4 9.7 4 8 C6.475 8.495 6.475 8.495 9 9 C8.67 10.32 8.34 11.64 8 13 C8.99 13.66 9.98 14.32 11 15 C10.34 15 9.68 15 9 15 C8.67 16.32 8.34 17.64 8 19 C8.66 19 9.32 19 10 19 C9.67 20.32 9.34 21.64 9 23 C12.96 23 16.92 23 21 23 C21 23.66 21 24.32 21 25 C22.32 25.66 23.64 26.32 25 27 C23.875 28.9375 23.875 28.9375 22 31 C18.8125 31.75 18.8125 31.75 16 32 C16.99 29.69 17.98 27.38 19 25 C15.37 24.67 11.74 24.34 8 24 C8 26.64 8 29.28 8 32 C7.01 32.495 7.01 32.495 6 33 C6 30.03 6 27.06 6 24 C2.37 24.33 -1.26 24.66 -5 25 C-4.38125 26.258125 -3.7625 27.51625 -3.125 28.8125 C-2.60292969 29.87404297 -2.60292969 29.87404297 -2.0703125 30.95703125 C-0.9343514 33.21246418 -0.9343514 33.21246418 1 36 C-9.8559322 32.63983051 -9.8559322 32.63983051 -12.875 28.3125 C-13.24625 27.549375 -13.6175 26.78625 -14 26 C-12.35 25.67 -10.7 25.34 -9 25 C-8.67 24.01 -8.34 23.02 -8 22 C-8 22.99 -8 23.98 -8 25 C-7.63261719 24.49855469 -7.26523437 23.99710938 -6.88671875 23.48046875 C-4.12767014 21.315501 -2.22607946 21.90874329 1.1875 22.3125 C2.27417969 22.43238281 3.36085938 22.55226563 4.48046875 22.67578125 C5.31191406 22.78277344 6.14335938 22.88976562 7 23 C6.505 20.525 6.505 20.525 6 18 C3.69 17.34 1.38 16.68 -1 16 C-0.67 10.72 -0.34 5.44 0 0 Z " fill="#44C3E7" transform="translate(51,37)"/>
<path d="M0 0 C9.27734375 -0.09765625 9.27734375 -0.09765625 12 0 C13 1 13 1 13.0625 3.03125 C13.02083333 4.67708333 12.97916667 6.32291667 12.9375 7.96875 C12.76775055 9.99609236 12.76775055 9.99609236 14 11 C14.28719107 13.7283152 14.44576385 15.36512421 12.83984375 17.65234375 C9.20298294 20.31628638 4.30498811 19.15194076 0 19 C0 12.73 0 6.46 0 0 Z " fill="#82D6ED" transform="translate(15,93)"/>
<path d="M0 0 C3.17090348 2.11393565 3.3998583 2.79971661 5 6 C6.0209375 6.9590625 6.0209375 6.9590625 7.0625 7.9375 C9.28970409 10.30839468 9.64629437 11.81664932 10 15 C7.59454362 16.20272819 6.05003047 16.10071472 3.375 16.0625 C2.14910156 16.04896484 2.14910156 16.04896484 0.8984375 16.03515625 C0.27195312 16.02355469 -0.35453125 16.01195313 -1 16 C-1.33 13.36 -1.66 10.72 -2 8 C-2.33 10.64 -2.66 13.28 -3 16 C-6.63 16 -10.26 16 -14 16 C-13.125 10.25 -13.125 10.25 -12 8 C-9.525 8.99 -9.525 8.99 -7 10 C-6.01524786 8.90081184 -5.03739527 7.7954398 -4.0625 6.6875 C-3.24458984 5.76517578 -3.24458984 5.76517578 -2.41015625 4.82421875 C-0.79918441 2.94758042 -0.79918441 2.94758042 0 0 Z " fill="#E7DBE0" transform="translate(60,12)"/>
<path d="M0 0 C1.65 0 3.3 0 5 0 C5.83848804 1.45537568 6.67063934 2.91440373 7.5 4.375 C8.19609375 5.59316406 8.19609375 5.59316406 8.90625 6.8359375 C10 9 10 9 10 11 C10.66 11 11.32 11 12 11 C12 7.37 12 3.74 12 0 C13.32 0 14.64 0 16 0 C16 6.27 16 12.54 16 19 C11 18 11 18 8.98046875 15.49609375 C8.38878906 14.48675781 7.79710937 13.47742188 7.1875 12.4375 C6.28064453 10.91962891 6.28064453 10.91962891 5.35546875 9.37109375 C4.90816406 8.58863281 4.46085937 7.80617188 4 7 C3.67 10.63 3.34 14.26 3 18 C2.01 18 1.02 18 0 18 C0 12.06 0 6.12 0 0 Z " fill="#47C4E5" transform="translate(55,93)"/>
<path d="M0 0 C4.38462134 0.50109958 6.8000997 1.98295115 10 5 C10 5.66 10 6.32 10 7 C10.93585938 7.36544922 10.93585938 7.36544922 11.890625 7.73828125 C15.13019763 9.67602562 15.43009272 12.11883675 16.47265625 15.6015625 C17.1872049 18.85143564 17.21154655 21.68577074 17 25 C14.36 25 11.72 25 9 25 C8.47097431 22.54316882 7.95149191 20.08497874 7.4375 17.625 C7.28603516 16.92632812 7.13457031 16.22765625 6.97851562 15.5078125 C5.88671875 10.2265625 5.88671875 10.2265625 7 8 C6.01 8 5.02 8 4 8 C2.68 5.36 1.36 2.72 0 0 Z " fill="#F6FAFB" transform="translate(68,18)"/>
<path d="M0 0 C7.70578218 0.34946858 12.52484879 1.970381 18.4375 7.125 C20 9 20 9 20 11 C20.66 11 21.32 11 22 11 C22.81837442 12.41328129 23.62946219 13.83078346 24.4375 15.25 C25.11619141 16.43335938 25.11619141 16.43335938 25.80859375 17.640625 C27.82691784 21.63756844 28.15688669 25.04270183 28.1875 29.5 C28.20167969 30.4384375 28.21585938 31.376875 28.23046875 32.34375 C28 35 28 35 26 39 C25.34 34.05 24.68 29.1 24 24 C23.67 26.97 23.34 29.94 23 33 C22.67 33 22.34 33 22 33 C21.98582031 32.16597656 21.97164062 31.33195312 21.95703125 30.47265625 C21.63763134 22.93654485 20.72223873 17.06094192 16 11 C15.34 10.67 14.68 10.34 14 10 C14 9.34 14 8.68 14 8 C13.01 7.67 12.02 7.34 11 7 C11 6.34 11 5.68 11 5 C9.6696875 4.566875 9.6696875 4.566875 8.3125 4.125 C5.49617576 3.16851252 2.74916844 2.13201054 0 1 C0 0.67 0 0.34 0 0 Z " fill="#1886C3" transform="translate(64,15)"/>
<path d="M0 0 C1.8871875 0.061875 1.8871875 0.061875 3.8125 0.125 C3.8125 1.115 3.8125 2.105 3.8125 3.125 C2.1625 3.455 0.5125 3.785 -1.1875 4.125 C-1.5175 5.115 -1.8475 6.105 -2.1875 7.125 C-0.764375 7.558125 -0.764375 7.558125 0.6875 8 C3.8125 9.125 3.8125 9.125 5.8125 11.125 C6.1875 13.5625 6.1875 13.5625 5.8125 16.125 C4.25 17.9375 4.25 17.9375 1.8125 19.125 C-1.9375 19.3125 -1.9375 19.3125 -5.1875 19.125 C-5.5175 17.805 -5.8475 16.485 -6.1875 15.125 C-4.2075 15.125 -2.2275 15.125 -0.1875 15.125 C-0.91018235 11.8264861 -0.91018235 11.8264861 -4.25 10.4375 C-5.7040625 9.7878125 -5.7040625 9.7878125 -7.1875 9.125 C-7.375 5.75 -7.375 5.75 -7.1875 2.125 C-4.09861478 0.06574319 -3.47814073 -0.1140374 0 0 Z " fill="#4BC6E7" transform="translate(46.1875,92.875)"/>
<path d="M0 0 C6.8359375 -0.1953125 6.8359375 -0.1953125 9 0 C9.66 0.66 10.32 1.32 11 2 C10.66666667 3.66666667 10.33333333 5.33333333 10 7 C10.66 7.66 11.32 8.32 12 9 C12.1875 11.5625 12.1875 11.5625 12 14 C11 15 11 15 8.4375 15.0625 C7.633125 15.041875 6.82875 15.02125 6 15 C6.33 13.35 6.66 11.7 7 10 C5.68 9.67 4.36 9.34 3 9 C3.33 10.98 3.66 12.96 4 15 C2.68 15 1.36 15 0 15 C0 10.05 0 5.1 0 0 Z " fill="#F2FAFB" transform="translate(52,36)"/>
<path d="M0 0 C2.64 0 5.28 0 8 0 C6.94812165 10.34347048 6.94812165 10.34347048 3.625 14.875 C2 16 2 16 -0.1875 15.6875 C-0.785625 15.460625 -1.38375 15.23375 -2 15 C-1.38487182 9.99109914 -0.7282448 4.99367864 0 0 Z " fill="#F6FAFB" transform="translate(77,46)"/>
<path d="M0 0 C2 3 2 3 3.25 6.25 C5.65583155 11.92776245 9.00981446 15.9693682 14.5 18.8125 C15.655 19.204375 16.81 19.59625 18 20 C19.134375 20.391875 20.26875 20.78375 21.4375 21.1875 C22.283125 21.455625 23.12875 21.72375 24 22 C24 22.99 24 23.98 24 25 C15.35840272 24.38274305 8.45248609 21.61212195 2.34375 15.28125 C-0.37630134 10.66348842 -0.05507454 5.2320817 0 0 Z " fill="#E52A2E" transform="translate(30,51)"/>
<path d="M0 0 C1.32 0 2.64 0 4 0 C4 1.65 4 3.3 4 5 C3.34 5 2.68 5 2 5 C1.67 8.63 1.34 12.26 1 16 C-1.64 16 -4.28 16 -7 16 C-6.75697543 8.83077527 -6.75697543 8.83077527 -4.59765625 6.4609375 C-3.07562326 5.29344867 -1.53850488 4.14569513 0 3 C0 2.01 0 1.02 0 0 Z " fill="#FAFCFC" transform="translate(38,27)"/>
<path d="M0 0 C0.66 0 1.32 0 2 0 C2.06058594 0.67546875 2.12117188 1.3509375 2.18359375 2.046875 C2.26738281 2.93890625 2.35117187 3.8309375 2.4375 4.75 C2.55931641 6.07257812 2.55931641 6.07257812 2.68359375 7.421875 C2.96266458 9.69578548 3.42768685 11.78769705 4 14 C4 16.47675731 3.4977237 18.69859695 3 21.125 C2.7215625 22.49011719 2.7215625 22.49011719 2.4375 23.8828125 C2.2209375 24.93082031 2.2209375 24.93082031 2 26 C1.67 26 1.34 26 1 26 C0.01751476 21.9472484 -0.08159574 18.16138263 0 14 C-3.3 14 -6.6 14 -10 14 C-10 13.01 -10 12.02 -10 11 C-7.03 11 -4.06 11 -1 11 C-0.67 7.37 -0.34 3.74 0 0 Z " fill="#4DC6E7" transform="translate(40,32)"/>
<path d="M0 0 C2.97 0 5.94 0 9 0 C9.33 2.64 9.66 5.28 10 8 C10.33 5.36 10.66 2.72 11 0 C18.42857143 -0.14285714 18.42857143 -0.14285714 22 1 C21.6875 3.375 21.6875 3.375 21 6 C20.01 6.66 19.02 7.32 18 8 C17.01 7.34 16.02 6.68 15 6 C13.02 8.31 11.04 10.62 9 13 C6.76448241 9.64672361 6.82716472 9.09256343 7.375 5.3125 C7.48585938 4.50425781 7.59671875 3.69601563 7.7109375 2.86328125 C7.85402344 1.94095703 7.85402344 1.94095703 8 1 C5.36 1 2.72 1 0 1 C0 0.67 0 0.34 0 0 Z " fill="#C0E6F3" transform="translate(48,61)"/>
<path d="M0 0 C4.62 0 9.24 0 14 0 C14 1.32 14 2.64 14 4 C12.02 4 10.04 4 8 4 C8 8.62 8 13.24 8 18 C7.01 18 6.02 18 5 18 C5 13.05 5 8.1 5 3 C3.35 3 1.7 3 0 3 C0 2.01 0 1.02 0 0 Z " fill="#42C4E5" transform="translate(88,93)"/>
<path d="M0 0 C3.08836654 0.22059761 4.27555766 1.23069944 6.6875 3.25 C9.02406007 6.02861198 9.69558521 7.44849408 10 11 C6.78548731 12.60725635 3.56387464 12.05748185 0 12 C-0.19401633 10.18818595 -0.38004375 8.37551468 -0.5625 6.5625 C-0.66691406 5.55316406 -0.77132812 4.54382813 -0.87890625 3.50390625 C-0.91886719 2.67761719 -0.95882812 1.85132812 -1 1 C-0.67 0.67 -0.34 0.34 0 0 Z " fill="#EEF8FB" transform="translate(60,16)"/>
<path d="M0 0 C3.3 0 6.6 0 10 0 C10.05406122 1.93719378 10.09282025 3.87481921 10.125 5.8125 C10.14820313 6.89144531 10.17140625 7.97039062 10.1953125 9.08203125 C10 12 10 12 8 15 C8 13.68 8 12.36 8 11 C7.4225 10.79375 6.845 10.5875 6.25 10.375 C3.136873 8.4725335 1.79260061 6.13705107 0 3 C0 2.01 0 1.02 0 0 Z " fill="#F0F6F9" transform="translate(46,62)"/>
<path d="M0 0 C0.33 0.99 0.66 1.98 1 3 C1.56654297 2.24783203 1.56654297 2.24783203 2.14453125 1.48046875 C4 0 4 0 6.69921875 -0.07421875 C8.17841797 0.11720703 8.17841797 0.11720703 9.6875 0.3125 C11.17830078 0.49232422 11.17830078 0.49232422 12.69921875 0.67578125 C13.45847656 0.78277344 14.21773437 0.88976563 15 1 C15 1.33 15 1.66 15 2 C11.37 2.33 7.74 2.66 4 3 C4.61875 4.258125 5.2375 5.51625 5.875 6.8125 C6.39707031 7.87404297 6.39707031 7.87404297 6.9296875 8.95703125 C8.0656486 11.21246418 8.0656486 11.21246418 10 14 C-0.8559322 10.63983051 -0.8559322 10.63983051 -3.875 6.3125 C-4.431875 5.1678125 -4.431875 5.1678125 -5 4 C-3.35 3.67 -1.7 3.34 0 3 C0 2.01 0 1.02 0 0 Z " fill="#53C3E2" transform="translate(42,59)"/>
<path d="M0 0 C1.65 0 3.3 0 5 0 C4.34 2.31 3.68 4.62 3 7 C4.98 7 6.96 7 9 7 C9 7.66 9 8.32 9 9 C7.02 9 5.04 9 3 9 C3 10.98 3 12.96 3 15 C4.98 15 6.96 15 9 15 C9.33 13.35 9.66 11.7 10 10 C10.33 10 10.66 10 11 10 C11 11.98 11 13.96 11 16 C7.57067929 17.71466036 3.78283935 17.05404056 0 17 C0 11.39 0 5.78 0 0 Z " fill="#23BBE3" transform="translate(16,94)"/>
<path d="M0 0 C1.98 0 3.96 0 6 0 C6 5.94 6 11.88 6 18 C4.02 18 2.04 18 0 18 C0 12.06 0 6.12 0 0 Z " fill="#44C2E5" transform="translate(31,93)"/>
<path d="M0 0 C3.78834395 1.26278132 4.22011278 2.52112952 6 6 C7.00483842 9.1922418 7.16457153 12.1616145 7.1875 15.5 C7.20167969 16.4384375 7.21585938 17.376875 7.23046875 18.34375 C7 21 7 21 5 25 C4.34 20.05 3.68 15.1 3 10 C2.67 12.97 2.34 15.94 2 19 C1.67 19 1.34 19 1 19 C0.93941406 18.11957031 0.87882812 17.23914063 0.81640625 16.33203125 C0.73261719 15.17058594 0.64882812 14.00914063 0.5625 12.8125 C0.48128906 11.66394531 0.40007812 10.51539063 0.31640625 9.33203125 C0.06789637 6.06075248 0.06789637 6.06075248 -0.59765625 3.13671875 C-0.73042969 2.43160156 -0.86320312 1.72648437 -1 1 C-0.67 0.67 -0.34 0.34 0 0 Z " fill="#419DCF" transform="translate(85,29)"/>
<path d="M0 0 C3.96 0 7.92 0 12 0 C12 0.99 12 1.98 12 3 C11.01 2.67 10.02 2.34 9 2 C9 3.65 9 5.3 9 7 C7.35 7.33 5.7 7.66 4 8 C3.957279 6.33388095 3.95936168 4.66617115 4 3 C4.33 2.67 4.66 2.34 5 2 C3.68 1.67 2.36 1.34 1 1 C1 6.61 1 12.22 1 18 C4.63 17.67 8.26 17.34 12 17 C11.67 17.66 11.34 18.32 11 19 C7.37 19 3.74 19 0 19 C0 12.73 0 6.46 0 0 Z " fill="#94DBF0" transform="translate(15,93)"/>
<path d="M0 0 C0.33 0 0.66 0 1 0 C2.29479052 6.15025498 3.0095763 12.97127109 1 19 C0.34 19 -0.32 19 -1 19 C-1 19.99 -1 20.98 -1 22 C-1.66 22 -2.32 22 -3 22 C-3.33 21.01 -3.66 20.02 -4 19 C-3.67 18.67 -3.34 18.34 -3 18 C-2.62525688 15.16600515 -2.29389149 12.34248179 -2 9.5 C-1.13513514 1.13513514 -1.13513514 1.13513514 0 0 Z " fill="#0273B9" transform="translate(88,38)"/>
<path d="M0 0 C1.8141927 0.28094582 3.62635001 0.57506433 5.4375 0.875 C6.95150391 1.11863281 6.95150391 1.11863281 8.49609375 1.3671875 C9.32238281 1.57601563 10.14867188 1.78484375 11 2 C11.33 2.66 11.66 3.32 12 4 C9.36 3.67 6.72 3.34 4 3 C4.66 3.66 5.32 4.32 6 5 C9 9.5 9 9.5 9 13 C9.99 13 10.98 13 12 13 C11.34 14.32 10.68 15.64 10 17 C9.67 16.34 9.34 15.68 9 15 C6.97536745 14.34786708 6.97536745 14.34786708 5 14 C5.66 14 6.32 14 7 14 C5.12344231 8.8641579 3.67025461 6.15557744 -1 3 C-0.67 2.01 -0.34 1.02 0 0 Z " fill="#55C5E6" transform="translate(63,13)"/>
<path d="M0 0 C2.33944736 0.28730055 4.6739143 0.61936779 7 1 C7 1.66 7 2.32 7 3 C8.65 3 10.3 3 12 3 C11.67 3.99 11.34 4.98 11 6 C6.71 6 2.42 6 -2 6 C-1 1 -1 1 0 0 Z " fill="#15B8E2" transform="translate(50,29)"/>
<path d="M0 0 C-0.33 1.32 -0.66 2.64 -1 4 C-2.32 4.33 -3.64 4.66 -5 5 C-5 6.32 -5 7.64 -5 9 C-5.763125 9.391875 -6.52625 9.78375 -7.3125 10.1875 C-11.32858667 12.89602357 -11.88981702 16.43505179 -13 21 C-13.38419998 22.99085446 -13.74216322 24.98887313 -14 27 C-14.33 27 -14.66 27 -15 27 C-15.59065692 17.69715347 -13.44355729 11.60743348 -7.375 4.5 C-3.28571429 0 -3.28571429 0 0 0 Z " fill="#F2A7A8" transform="translate(44,22)"/>
<path d="M0 0 C3.09294722 4.63942083 2.77167299 9.56832118 2 15 C-0.5 17.75 -0.5 17.75 -3 19 C-2.814375 17.7625 -2.62875 16.525 -2.4375 15.25 C-2.04017019 12.15844753 -2.14132665 10.00535672 -3 7 C-2.5625 4.75 -2.5625 4.75 -2 3 C-1.34 3 -0.68 3 0 3 C0 2.01 0 1.02 0 0 Z " fill="#EEF8FC" transform="translate(30,93)"/>
<path d="M0 0 C4.38462134 0.50109958 6.8000997 1.98295115 10 5 C10 5.66 10 6.32 10 7 C11.32 7.66 12.64 8.32 14 9 C13.67 9.66 13.34 10.32 13 11 C10.03 10.505 10.03 10.505 7 10 C7 9.34 7 8.68 7 8 C6.01 8 5.02 8 4 8 C2.68 5.36 1.36 2.72 0 0 Z " fill="#D0EBF5" transform="translate(68,18)"/>
<path d="M0 0 C0 0.66 0 1.32 0 2 C-1.65 2.33 -3.3 2.66 -5 3 C-5.12375 3.5775 -5.2475 4.155 -5.375 4.75 C-6.00648824 7.02335767 -6.88858191 8.9253529 -8 11 C-7.34 11.33 -6.68 11.66 -6 12 C-7.32 12.99 -8.64 13.98 -10 15 C-10.66 13.68 -11.32 12.36 -12 11 C-12.33 11.66 -12.66 12.32 -13 13 C-13.66 13 -14.32 13 -15 13 C-13.6213147 9.90137066 -12.02976802 7.75876568 -9.625 5.375 C-9.03976563 4.78460937 -8.45453125 4.19421875 -7.8515625 3.5859375 C-5.40392557 1.48943835 -3.27847552 0 0 0 Z " fill="#E92B31" transform="translate(45,13)"/>
<path d="M0 0 C1.45792884 -0.05399736 2.91642712 -0.09279177 4.375 -0.125 C5.18710937 -0.14820313 5.99921875 -0.17140625 6.8359375 -0.1953125 C9 0 9 0 11 2 C10.625 4.625 10.625 4.625 10 7 C7.69 7 5.38 7 3 7 C3 5.02 3 3.04 3 1 C2.01 0.67 1.02 0.34 0 0 Z " fill="#B9E7F5" transform="translate(52,36)"/>
<path d="M0 0 C2.475 0.99 2.475 0.99 5 2 C5 1.34 5 0.68 5 0 C7.84550012 0.66010476 10.52325999 1.51724966 13.25 2.5625 C13.95640625 2.83191406 14.6628125 3.10132812 15.390625 3.37890625 C15.92171875 3.58386719 16.4528125 3.78882812 17 4 C17 4.99 17 5.98 17 7 C10.95824947 6.56844639 6.10986905 5.37684613 1 2 C0.67 1.34 0.34 0.68 0 0 Z " fill="#E7474D" transform="translate(37,69)"/>
<path d="M0 0 C0.33 0 0.66 0 1 0 C1 5.94 1 11.88 1 18 C1.99 18 2.98 18 4 18 C4 14.04 4 10.08 4 6 C4.99 6.66 5.98 7.32 7 8 C6.67 11.63 6.34 15.26 6 19 C4.02 19 2.04 19 0 19 C0 12.73 0 6.46 0 0 Z " fill="#B3E4F3" transform="translate(54,93)"/>
<path d="M0 0 C3.3 0 6.6 0 10 0 C9.6875 2.375 9.6875 2.375 9 5 C8.01 5.66 7.02 6.32 6 7 C5.67 5.68 5.34 4.36 5 3 C3.35 2.67 1.7 2.34 0 2 C0 1.34 0 0.68 0 0 Z " fill="#F0F8FA" transform="translate(60,62)"/>
<path d="M0 0 C0.66 0 1.32 0 2 0 C1.67515625 0.85271484 1.67515625 0.85271484 1.34375 1.72265625 C-0.45981958 6.7242219 -1.3389604 10.68962036 -1 16 C-2.64826111 13.03312999 -3.44271087 10.34373475 -4 7 C-4.99 6.67 -5.98 6.34 -7 6 C-6.401875 5.938125 -5.80375 5.87625 -5.1875 5.8125 C-2.14245324 4.68148263 -1.55509485 2.75675905 0 0 Z " fill="#2EBDE4" transform="translate(46,20)"/>
<path d="M0 0 C0.66 0 1.32 0 2 0 C2 5.28 2 10.56 2 16 C0.68 16 -0.64 16 -2 16 C-2 15.01 -2 14.02 -2 13 C-1.34 13 -0.68 13 0 13 C0 8.71 0 4.42 0 0 Z " fill="#17B9E2" transform="translate(68,94)"/>
<path d="M0 0 C-0.33 1.65 -0.66 3.3 -1 5 C-2.32 5 -3.64 5 -5 5 C-5 5.66 -5 6.32 -5 7 C-5.66 7 -6.32 7 -7 7 C-7 7.66 -7 8.32 -7 9 C-7.66 9 -8.32 9 -9 9 C-8.37315423 6.07471973 -7.51695295 3.58774327 -6 1 C-4 0 -4 0 0 0 Z " fill="#E30102" transform="translate(46,15)"/>
<path d="M0 0 C0.99 0.33 1.98 0.66 3 1 C2.67 2.65 2.34 4.3 2 6 C2.66 6.33 3.32 6.66 4 7 C3 8 3 8 -0.5625 8.0625 C-1.696875 8.041875 -2.83125 8.02125 -4 8 C-4.33 6.68 -4.66 5.36 -5 4 C-3.02 4 -1.04 4 1 4 C0.67 2.68 0.34 1.36 0 0 Z " fill="#64CBE9" transform="translate(45,104)"/>
<path d="M0 0 C0.66 0 1.32 0 2 0 C2.08886184 3.19902639 1.91058531 5.92677456 1 9 C1.66 9 2.32 9 3 9 C3 8.01 3 7.02 3 6 C3.66 6 4.32 6 5 6 C5.33 5.01 5.66 4.02 6 3 C6 4.32 6 5.64 6 7 C5.34 7 4.68 7 4 7 C3.87625 7.61875 3.7525 8.2375 3.625 8.875 C3 11 3 11 1 13 C0.67 12.01 0.34 11.02 0 10 C-0.66 9.67 -1.32 9.34 -2 9 C-1.34 6.03 -0.68 3.06 0 0 Z " fill="#2A91C9" transform="translate(84,51)"/>
<path d="M0 0 C0.33 0 0.66 0 1 0 C1 2.97 1 5.94 1 9 C2.98 9 4.96 9 7 9 C7 9.66 7 10.32 7 11 C2.71 10.67 -1.58 10.34 -6 10 C-6 9.67 -6 9.34 -6 9 C-4.35 9 -2.7 9 -1 9 C-1.020625 7.700625 -1.04125 6.40125 -1.0625 5.0625 C-1.08399454 3.70834367 -1.07148199 2.35243917 -1 1 C-0.67 0.67 -0.34 0.34 0 0 Z " fill="#49C3E7" transform="translate(58,19)"/>
<path d="M0 0 C3.03674826 1.51837413 3.62709489 4.18427006 5 7.1875 C5.87144569 9.17201523 5.87144569 9.17201523 8 10 C8 10.66 8 11.32 8 12 C7.34 12 6.68 12 6 12 C5.67 12.99 5.34 13.98 5 15 C4.15415002 13.44424022 3.32381601 11.8800388 2.5 10.3125 C2.0359375 9.44238281 1.571875 8.57226562 1.09375 7.67578125 C-0.04818792 4.88211171 -0.21504208 2.98370887 0 0 Z " fill="#40C2E6" transform="translate(60,95)"/>
<path d="M0 0 C0.33 0.99 0.66 1.98 1 3 C0.360625 3.268125 -0.27875 3.53625 -0.9375 3.8125 C-3.33131686 4.88667752 -3.33131686 4.88667752 -4 8 C-4.66 8 -5.32 8 -6 8 C-6.33 5.69 -6.66 3.38 -7 1 C-4.53721199 -0.231394 -2.7204945 -0.07159196 0 0 Z " fill="#0476BB" transform="translate(78,67)"/>
<path d="M0 0 C1.65 0.33 3.3 0.66 5 1 C4.67 2.32 4.34 3.64 4 5 C4.99 5.66 5.98 6.32 7 7 C3.7 7 0.4 7 -3 7 C-2.01 6.34 -1.02 5.68 0 5 C0.25030977 2.41619823 0.25030977 2.41619823 0 0 Z " fill="#8EDAF0" transform="translate(55,45)"/>
<path d="M0 0 C0.33 0 0.66 0 1 0 C1 3.63 1 7.26 1 11 C0.34 11 -0.32 11 -1 11 C-4.11450382 6.84732824 -4.11450382 6.84732824 -3.6875 3.6875 C-3.460625 3.130625 -3.23375 2.57375 -3 2 C-2.01 2.33 -1.02 2.66 0 3 C0 2.01 0 1.02 0 0 Z " fill="#DBF2F9" transform="translate(66,93)"/>
<path d="M0 0 C1.9453125 -0.29296875 1.9453125 -0.29296875 4.125 -0.1875 C5.40375 -0.125625 6.6825 -0.06375 8 0 C8 0.99 8 1.98 8 3 C5.69 3 3.38 3 1 3 C1 3.66 1 4.32 1 5 C0.34 5 -0.32 5 -1 5 C-1.33 5.99 -1.66 6.98 -2 8 C-2.20086443 4.28400809 -2.1519437 3.22791555 0 0 Z " fill="#38C0E3" transform="translate(42,93)"/>
<path d="M0 0 C4.39158329 1.4638611 4.87947433 3.97831338 7 8 C0.47692308 6.52307692 0.47692308 6.52307692 -1.9375 3.875 C-2.288125 3.25625 -2.63875 2.6375 -3 2 C-2.01 1.34 -1.02 0.68 0 0 Z " fill="#DFDEE5" transform="translate(41,63)"/>
<path d="M0 0 C0 0.99 0 1.98 0 3 C0.31669821 5.33564933 0.64820803 7.6693782 1 10 C-1.31 9.67 -3.62 9.34 -6 9 C-6 6 -6 6 -3.5625 3.375 C-2.716875 2.59125 -1.87125 1.8075 -1 1 C-0.67 0.67 -0.34 0.34 0 0 Z " fill="#248CC7" transform="translate(61,68)"/>
<path d="M0 0 C0.66 0.33 1.32 0.66 2 1 C2 2.32 2 3.64 2 5 C1.01 5.33 0.02 5.66 -1 6 C-1.33 6.66 -1.66 7.32 -2 8 C-3.32 7.67 -4.64 7.34 -6 7 C-5.67 5.68 -5.34 4.36 -5 3 C-3.35 3 -1.7 3 0 3 C0 2.01 0 1.02 0 0 Z " fill="#CEEDF8" transform="translate(50,93)"/>
<path d="M0 0 C1.98 0.66 3.96 1.32 6 2 C4.875 3.9375 4.875 3.9375 3 6 C-0.1875 6.75 -0.1875 6.75 -3 7 C-2.01 4.69 -1.02 2.38 0 0 Z " fill="#86D4EC" transform="translate(70,62)"/>
<path d="M0 0 C0.33 0 0.66 0 1 0 C1.66 3.96 2.32 7.92 3 12 C1.68 11.34 0.36 10.68 -1 10 C-1.99549067 6.7291021 -2.32868536 4.83266959 -1.0625 1.625 C-0.5365625 0.820625 -0.5365625 0.820625 0 0 Z " fill="#E50C0F" transform="translate(29,49)"/>
<path d="M0 0 C1.32 0.66 2.64 1.32 4 2 C4.042721 3.66611905 4.04063832 5.33382885 4 7 C3 8 3 8 0.4375 8.0625 C-0.366875 8.041875 -1.17125 8.02125 -2 8 C-1.34 5.36 -0.68 2.72 0 0 Z " fill="#DFF2F8" transform="translate(60,43)"/>
<path d="M0 0 C2.31 0 4.62 0 7 0 C7 5.28 7 10.56 7 16 C6.67 16 6.34 16 6 16 C5.67 11.71 5.34 7.42 5 3 C3.35 2.67 1.7 2.34 0 2 C0 1.34 0 0.68 0 0 Z " fill="#21BAE3" transform="translate(88,94)"/>
<path d="M0 0 C0.99 0.33 1.98 0.66 3 1 C2.6875 3.875 2.6875 3.875 2 7 C1.01 7.66 0.02 8.32 -1 9 C-1.625 5.625 -1.625 5.625 -2 2 C-1.34 1.34 -0.68 0.68 0 0 Z " fill="#0977BD" transform="translate(82,60)"/>
<path d="M0 0 C2 2 2 2 2 5 C4.31 5 6.62 5 9 5 C9 5.66 9 6.32 9 7 C6.03 7 3.06 7 0 7 C0 4.69 0 2.38 0 0 Z " fill="#27BBE3" transform="translate(76,104)"/>
<path d="M0 0 C0.33 0.66 0.66 1.32 1 2 C3.01669827 3.13350534 3.01669827 3.13350534 5 4 C4.67 4.66 4.34 5.32 4 6 C1.03 5.505 1.03 5.505 -2 5 C-2 4.34 -2 3.68 -2 3 C-2.99 3 -3.98 3 -5 3 C-4.67 2.34 -4.34 1.68 -4 1 C-1.9375 0.375 -1.9375 0.375 0 0 Z " fill="#96D6EC" transform="translate(77,23)"/>
<path d="M0 0 C1.65 0 3.3 0 5 0 C4.88637738 1.4800841 4.75877092 2.95910074 4.625 4.4375 C4.55539063 5.26121094 4.48578125 6.08492188 4.4140625 6.93359375 C4.27742188 7.61550781 4.14078125 8.29742187 4 9 C3.01 9.495 3.01 9.495 2 10 C1.855625 8.906875 1.71125 7.81375 1.5625 6.6875 C1.11711896 3.06877013 1.11711896 3.06877013 0 0 Z " fill="#1CBBE4" transform="translate(31,94)"/>
<path d="M0 0 C0.66 0 1.32 0 2 0 C2 1.32 2 2.64 2 4 C1.01 4.495 1.01 4.495 0 5 C1.98 5.66 3.96 6.32 6 7 C6 7.33 6 7.66 6 8 C3.36 8 0.72 8 -2 8 C-1.125 2.25 -1.125 2.25 0 0 Z " fill="#CAECF6" transform="translate(48,20)"/>
<path d="M0 0 C1.485 0.99 1.485 0.99 3 2 C5.62531524 2.16713569 5.62531524 2.16713569 8 2 C8 2.66 8 3.32 8 4 C5.64561267 5.42944945 4.51967567 6.08661261 1.75 5.625 C1.1725 5.41875 0.595 5.2125 0 5 C-0.5625 3.0625 -0.5625 3.0625 -1 1 C-0.67 0.67 -0.34 0.34 0 0 Z " fill="#1D8FC8" transform="translate(63,66)"/>
<path d="M0 0 C2 2 2 2 2.1953125 4.6015625 C2.17210938 5.59929688 2.14890625 6.59703125 2.125 7.625 C2.10695313 8.62789062 2.08890625 9.63078125 2.0703125 10.6640625 C2.03550781 11.82035156 2.03550781 11.82035156 2 13 C1.01 13 0.02 13 -1 13 C-0.67 12.67 -0.34 12.34 0 12 C0.2500773 9.54190002 0.2500773 9.54190002 0 7 C-0.66 6.34 -1.32 5.68 -2 5 C-1.34 3.35 -0.68 1.7 0 0 Z " fill="#47C3E6" transform="translate(63,38)"/>
<path d="M0 0 C1.8141927 0.28094582 3.62635001 0.57506433 5.4375 0.875 C6.95150391 1.11863281 6.95150391 1.11863281 8.49609375 1.3671875 C9.32238281 1.57601563 10.14867188 1.78484375 11 2 C11.33 2.66 11.66 3.32 12 4 C10.14375 3.7215625 10.14375 3.7215625 8.25 3.4375 C5.23720423 3.05288777 2.89989173 2.9125406 0 4 C0 2.68 0 1.36 0 0 Z " fill="#48A9D5" transform="translate(63,13)"/>
<path d="M0 0 C-0.375 1.9375 -0.375 1.9375 -1 4 C-1.99 4.495 -1.99 4.495 -3 5 C-5.625 4.0625 -5.625 4.0625 -8 3 C-5.53387212 -0.1151089 -3.89156016 -0.31553191 0 0 Z " fill="#E40F10" transform="translate(60,12)"/>
<path d="M0 0 C0.99 0.33 1.98 0.66 3 1 C3.33 2.98 3.66 4.96 4 7 C2.68 6.67 1.36 6.34 0 6 C-0.38218767 4.34385343 -0.71395102 2.67542976 -1 1 C-0.67 0.67 -0.34 0.34 0 0 Z " fill="#0B7BBF" transform="translate(85,29)"/>
<path d="M0 0 C2.35119399 3.52679099 2.21443452 5.02879485 2.125 9.1875 C2.10695313 10.27417969 2.08890625 11.36085938 2.0703125 12.48046875 C2.03550781 13.72763672 2.03550781 13.72763672 2 15 C1.67 15 1.34 15 1 15 C1 11.7 1 8.4 1 5 C0.01 5.33 -0.98 5.66 -2 6 C-2 5.01 -2 4.02 -2 3 C-1.34 3 -0.68 3 0 3 C0 2.01 0 1.02 0 0 Z " fill="#C9EBF8" transform="translate(30,93)"/>
<path d="M0 0 C0.99 0.66 1.98 1.32 3 2 C2.34 2 1.68 2 1 2 C1.309375 2.928125 1.309375 2.928125 1.625 3.875 C1.74875 4.57625 1.8725 5.2775 2 6 C1.34 6.66 0.68 7.32 0 8 C-1.5 6.625 -1.5 6.625 -3 5 C-3 4.34 -3 3.68 -3 3 C-2.34 3 -1.68 3 -1 3 C-0.67 2.01 -0.34 1.02 0 0 Z " fill="#E20508" transform="translate(33,23)"/>
<path d="M0 0 C1.32 0.66 2.64 1.32 4 2 C4 3.32 4 4.64 4 6 C3.01 6 2.02 6 1 6 C1 5.01 1 4.02 1 3 C0.34 3 -0.32 3 -1 3 C-0.67 2.01 -0.34 1.02 0 0 Z " fill="#2EBEE3" transform="translate(24,94)"/>
<path d="M0 0 C0.33 0.99 0.66 1.98 1 3 C5.07964281 1.69844994 5.07964281 1.69844994 9 0 C7.95125002 2.62187494 7.35068687 3.79371361 4.875 5.25 C4.25625 5.4975 3.6375 5.745 3 6 C2.01 5.34 1.02 4.68 0 4 C0 2.68 0 1.36 0 0 Z " fill="#4EB7E0" transform="translate(73,59)"/>
<path d="M0 0 C0.928125 0.20625 1.85625 0.4125 2.8125 0.625 C2.1525 1.945 1.4925 3.265 0.8125 4.625 C0.4825 3.965 0.1525 3.305 -0.1875 2.625 C-3.21684491 1.96727572 -3.21684491 1.96727572 -6.1875 1.625 C-3.1875 -0.375 -3.1875 -0.375 0 0 Z " fill="#DC353F" transform="translate(52.1875,18.375)"/>
<path d="M0 0 C1.32 0 2.64 0 4 0 C4 1.65 4 3.3 4 5 C3.01 5 2.02 5 1 5 C0.67 3.35 0.34 1.7 0 0 Z " fill="#D5F1F9" transform="translate(38,27)"/>
<path d="M0 0 C-0.33 1.32 -0.66 2.64 -1 4 C-2.98 4.33 -4.96 4.66 -7 5 C-2.25 0 -2.25 0 0 0 Z " fill="#CBC7D1" transform="translate(44,22)"/>
<path d="M0 0 C0.66 0 1.32 0 2 0 C1.34 2.31 0.68 4.62 0 7 C-0.99 6.34 -1.98 5.68 -3 5 C-1.625 2.5 -1.625 2.5 0 0 Z " fill="#6AC5E1" transform="translate(46,20)"/>
</svg>
